<svg xmlns="http://www.w3.org/2000/svg" viewBox="0 0 169 169">
  <g fill="#1e1e1f">
    <path d="M30.5 102.5a18 18 0 1 0 0-36 18 18 0 0 0 0 36Z"/>
    <path d="M84.5 102.5a18 18 0 1 0 0-36 18 18 0 0 0 0 36Z"/>
    <path d="M84.5 156.5a18 18 0 1 0 0-36 18 18 0 0 0 0 36Z"/>
    <path d="M138.5 102.5a18 18 0 1 0 0-36 18 18 0 0 0 0 36Z"/>
  </g>
  <g fill="#1e1e1f" fill-opacity=".4">
    <path d="M30.5 156.5a18 18 0 1 0 0-36 18 18 0 0 0 0 36Z"/>
    <path d="M138.5 156.5a18 18 0 1 0 0-36 18 18 0 0 0 0 36Z"/>
    <path d="M30.5 48.5a18 18 0 1 0 0-36 18 18 0 0 0 0 36Z"/>
    <path d="M84.5 48.5a18 18 0 1 0 0-36 18 18 0 0 0 0 36Z"/>
    <path d="M138.5 48.5a18 18 0 1 0 0-36 18 18 0 0 0 0 36Z"/>
  </g>
</svg>
